<svg width="18" height="20" viewBox="0 0 18 20" fill="none" xmlns="http://www.w3.org/2000/svg">
<path d="M16.745 11.5833L16.375 11.37C16.5416 10.4637 16.5416 9.53463 16.375 8.62833L16.745 8.415C17.0296 8.25085 17.279 8.03226 17.479 7.77172C17.6791 7.51118 17.8259 7.21378 17.911 6.89651C17.9961 6.57925 18.0179 6.24832 17.9751 5.92263C17.9324 5.59694 17.8259 5.28286 17.6617 4.99833C17.4976 4.7138 17.279 4.46439 17.0184 4.26434C16.7579 4.06428 16.4605 3.91751 16.1432 3.83239C15.826 3.74726 15.495 3.72547 15.1693 3.76824C14.8436 3.81101 14.5296 3.91751 14.245 4.08167L13.8742 4.29583C13.1738 3.69743 12.3689 3.23354 11.5 2.9275V2.5C11.5 1.83696 11.2366 1.20107 10.7678 0.732233C10.299 0.263392 9.66308 0 9.00004 0C8.33699 0 7.70111 0.263392 7.23227 0.732233C6.76343 1.20107 6.50004 1.83696 6.50004 2.5V2.9275C5.63119 3.23464 4.82658 3.69967 4.1267 4.29917L3.7542 4.08333C3.17957 3.75181 2.49677 3.66214 1.85602 3.83405C1.21527 4.00596 0.669056 4.42536 0.337536 5C0.00601519 5.57464 -0.0836541 6.25743 0.0882543 6.89818C0.260163 7.53893 0.679567 8.08515 1.2542 8.41667L1.6242 8.63C1.45763 9.5363 1.45763 10.4654 1.6242 11.3717L1.2542 11.585C0.679567 11.9165 0.260163 12.4627 0.0882543 13.1035C-0.0836541 13.7442 0.00601519 14.427 0.337536 15.0017C0.669056 15.5763 1.21527 15.9957 1.85602 16.1676C2.49677 16.3395 3.17957 16.2499 3.7542 15.9183L4.12504 15.7042C4.82567 16.3027 5.63085 16.7666 6.50004 17.0725V17.5C6.50004 18.163 6.76343 18.7989 7.23227 19.2678C7.70111 19.7366 8.33699 20 9.00004 20C9.66308 20 10.299 19.7366 10.7678 19.2678C11.2366 18.7989 11.5 18.163 11.5 17.5V17.0725C12.3689 16.7654 13.1735 16.3003 13.8734 15.7008L14.2459 15.9158C14.8205 16.2474 15.5033 16.337 16.1441 16.1651C16.7848 15.9932 17.331 15.5738 17.6625 14.9992C17.9941 14.4245 18.0837 13.7417 17.9118 13.101C17.7399 12.4602 17.3205 11.914 16.7459 11.5825L16.745 11.5833ZM14.6217 8.43667C14.9039 9.45922 14.9039 10.5391 14.6217 11.5617C14.5724 11.7396 14.5837 11.9289 14.6537 12.0998C14.7236 12.2707 14.8484 12.4135 15.0084 12.5058L15.9117 13.0275C16.1032 13.138 16.243 13.3201 16.3003 13.5336C16.3575 13.7472 16.3276 13.9747 16.2171 14.1663C16.1066 14.3578 15.9246 14.4975 15.711 14.5548C15.4974 14.6121 15.2699 14.5822 15.0784 14.4717L14.1734 13.9483C14.0133 13.8556 13.8269 13.8188 13.6436 13.8437C13.4603 13.8686 13.2904 13.9538 13.1609 14.0858C12.4191 14.843 11.4847 15.3833 10.4584 15.6483C10.2792 15.6944 10.1205 15.7987 10.0072 15.9449C9.89389 16.0911 9.83244 16.2709 9.83253 16.4558V17.5C9.83253 17.721 9.74474 17.933 9.58846 18.0893C9.43218 18.2455 9.22022 18.3333 8.9992 18.3333C8.77819 18.3333 8.56623 18.2455 8.40995 18.0893C8.25367 17.933 8.16587 17.721 8.16587 17.5V16.4567C8.16596 16.2717 8.10451 16.092 7.99121 15.9458C7.8779 15.7996 7.71917 15.6952 7.54004 15.6492C6.51366 15.3831 5.57948 14.8416 4.83837 14.0833C4.70881 13.9513 4.53898 13.8661 4.35567 13.8412C4.17235 13.8163 3.98596 13.8531 3.82587 13.9458L2.92254 14.4683C2.82773 14.5239 2.72286 14.5602 2.61397 14.5751C2.50509 14.59 2.39433 14.5832 2.28808 14.5551C2.18183 14.527 2.08219 14.4782 1.99489 14.4114C1.90759 14.3446 1.83435 14.2613 1.7794 14.1661C1.72445 14.0709 1.68887 13.9658 1.6747 13.8568C1.66053 13.7479 1.66807 13.6372 1.69686 13.5311C1.72566 13.425 1.77514 13.3257 1.84248 13.2389C1.90981 13.152 1.99366 13.0793 2.0892 13.025L2.99254 12.5033C3.15249 12.411 3.27726 12.2682 3.34725 12.0973C3.41724 11.9264 3.42848 11.7371 3.3792 11.5592C3.097 10.5366 3.097 9.45672 3.3792 8.43417C3.42759 8.25657 3.41582 8.06795 3.34571 7.89774C3.27561 7.72754 3.15113 7.58534 2.9917 7.49333L2.08837 6.97167C1.89686 6.86116 1.75709 6.6791 1.69982 6.46555C1.64254 6.25199 1.67245 6.02442 1.78295 5.83292C1.89346 5.64141 2.07552 5.50164 2.28907 5.44437C2.50263 5.38709 2.73019 5.41699 2.9217 5.5275L3.8267 6.05083C3.98635 6.14376 4.17235 6.18101 4.35548 6.15672C4.5386 6.13244 4.70846 6.048 4.83837 5.91667C5.58011 5.15945 6.51456 4.61918 7.54087 4.35417C7.72056 4.30797 7.8797 4.20313 7.99306 4.05625C8.10643 3.90938 8.16754 3.72887 8.1667 3.54333V2.5C8.1667 2.27899 8.2545 2.06702 8.41078 1.91074C8.56706 1.75446 8.77902 1.66667 9.00004 1.66667C9.22105 1.66667 9.43301 1.75446 9.58929 1.91074C9.74557 2.06702 9.83337 2.27899 9.83337 2.5V3.54333C9.83328 3.7283 9.89472 3.90804 10.008 4.05423C10.1213 4.20043 10.2801 4.30478 10.4592 4.35083C11.4859 4.61679 12.4204 5.15824 13.1617 5.91667C13.2913 6.04872 13.4611 6.13391 13.6444 6.15881C13.8277 6.1837 14.0141 6.14689 14.1742 6.05417L15.0775 5.53167C15.1723 5.47609 15.2772 5.43981 15.3861 5.42492C15.495 5.41003 15.6057 5.41683 15.712 5.44492C15.8182 5.47301 15.9179 5.52184 16.0052 5.58859C16.0925 5.65535 16.1657 5.73872 16.2207 5.83389C16.2756 5.92907 16.3112 6.03417 16.3254 6.14316C16.3395 6.25214 16.332 6.36285 16.3032 6.46891C16.2744 6.57497 16.2249 6.67429 16.1576 6.76114C16.0903 6.848 16.0064 6.92068 15.9109 6.975L15.0075 7.49667C14.8484 7.58892 14.7243 7.73123 14.6545 7.90141C14.5847 8.07159 14.5732 8.26008 14.6217 8.4375V8.43667Z" fill="#75819A"/>
</svg>
