<svg width="17" height="20" viewBox="0 0 17 20" fill="none" xmlns="http://www.w3.org/2000/svg">
<path d="M15.0783 6.64021L7.12833 0.80688C6.50741 0.352201 5.77269 0.0783751 5.00564 0.0157659C4.23859 -0.0468433 3.46919 0.10421 2.78275 0.452178C2.0963 0.800145 1.51965 1.33143 1.11672 1.98712C0.713783 2.64281 0.500322 3.39728 0.5 4.16688V15.8335C0.500137 16.6035 0.713611 17.3583 1.11673 18.0143C1.51985 18.6703 2.09684 19.2018 2.78368 19.5497C3.47052 19.8977 4.24034 20.0485 5.00771 19.9855C5.77507 19.9225 6.50996 19.6481 7.13083 19.1927L15.0808 13.3594C15.6086 12.9724 16.0377 12.4665 16.3335 11.8828C16.6293 11.299 16.7835 10.6538 16.7835 9.99938C16.7835 9.34496 16.6293 8.69975 16.3335 8.116C16.0377 7.53225 15.6086 7.02638 15.0808 6.63938L15.0783 6.64021ZM14.0917 12.0152L6.14167 17.8485C5.76918 18.1207 5.32864 18.2845 4.86881 18.3219C4.40898 18.3592 3.9478 18.2685 3.53631 18.0599C3.12482 17.8513 2.77907 17.5329 2.53734 17.14C2.2956 16.747 2.16731 16.2949 2.16667 15.8335V4.16688C2.16204 3.70467 2.28791 3.25053 2.52981 2.85665C2.77172 2.46277 3.11983 2.14512 3.53417 1.94021C3.88658 1.76096 4.27629 1.66731 4.67167 1.66688C5.20158 1.6689 5.71685 1.84095 6.14167 2.15771L14.0917 7.99105C14.4079 8.22329 14.6651 8.52672 14.8423 8.87677C15.0195 9.22682 15.1119 9.61368 15.1119 10.006C15.1119 10.3984 15.0195 10.7853 14.8423 11.1353C14.6651 11.4854 14.4079 11.7888 14.0917 12.021V12.0152Z" fill="white"/>
</svg>
